<?xml version="1.0" encoding="UTF-8" standalone="no"?>
<!DOCTYPE svg PUBLIC "-//W3C//DTD SVG 1.1//EN"
 "http://www.w3.org/Graphics/SVG/1.1/DTD/svg11.dtd">
<!-- Generated by graphviz version 2.40.1 (20161225.0304)
 -->
<!-- Title: G Pages: 1 -->
<svg width="288pt" height="272pt"
 viewBox="0.00 0.00 288.00 272.29" xmlns="http://www.w3.org/2000/svg" xmlns:xlink="http://www.w3.org/1999/xlink">
<g id="graph0" class="graph" transform="scale(.8727 .8727) rotate(0) translate(4 308)">
<title>G</title>
<polygon fill="#ffffff" stroke="transparent" points="-4,4 -4,-308 326,-308 326,4 -4,4"/>
<g id="clust1" class="cluster">
<title>cluster_Menu</title>
<polygon fill="none" stroke="#000000" points="103.324,-90.92 103.324,-128.92 175.324,-128.92 175.324,-90.92 103.324,-90.92"/>
<text text-anchor="middle" x="139.512" y="-113.72" font-family="Times,serif" font-size="14.00" fill="#000000">Menu Bar</text>
</g>
<g id="clust2" class="cluster">
<title>cluster_Home</title>
<polygon fill="none" stroke="#000000" points="272.224,-190.4793 272.224,-228.4793 322.224,-228.4793 322.224,-190.4793 272.224,-190.4793"/>
<text text-anchor="middle" x="297.331" y="-213.2793" font-family="Times,serif" font-size="14.00" fill="#000000">Home</text>
</g>
<g id="clust3" class="cluster">
<title>cluster_Model</title>
<polygon fill="none" stroke="#000000" points="144.7964,-159.4545 144.7964,-197.4545 196.7964,-197.4545 196.7964,-159.4545 144.7964,-159.4545"/>
<text text-anchor="middle" x="171.0723" y="-182.2545" font-family="Times,serif" font-size="14.00" fill="#000000">Model</text>
</g>
<g id="clust4" class="cluster">
<title>cluster_Results</title>
<polygon fill="none" stroke="#000000" points="175.4856,-212.1392 175.4856,-250.1392 231.4856,-250.1392 231.4856,-212.1392 175.4856,-212.1392"/>
<text text-anchor="middle" x="204.0993" y="-234.9392" font-family="Times,serif" font-size="14.00" fill="#000000">Results</text>
</g>
<g id="clust5" class="cluster">
<title>cluster_Edit</title>
<polygon fill="none" stroke="#000000" points="240.4893,-265.8133 240.4893,-303.8133 278.4893,-303.8133 278.4893,-265.8133 240.4893,-265.8133"/>
<text text-anchor="middle" x="260.1548" y="-288.6133" font-family="Times,serif" font-size="14.00" fill="#000000">Edit</text>
</g>
<g id="clust6" class="cluster">
<title>cluster_SignUp</title>
<polygon fill="none" stroke="#000000" points="70.3186,-149.2797 70.3186,-187.2797 132.3186,-187.2797 132.3186,-149.2797 70.3186,-149.2797"/>
<text text-anchor="middle" x="101.4616" y="-172.0797" font-family="Times,serif" font-size="14.00" fill="#000000">Sign Up</text>
</g>
<g id="clust7" class="cluster">
<title>cluster_SignIn</title>
<polygon fill="none" stroke="#000000" points="39.4275,-33.5868 39.4275,-71.5868 95.4275,-71.5868 95.4275,-33.5868 39.4275,-33.5868"/>
<text text-anchor="middle" x="67.8465" y="-56.3868" font-family="Times,serif" font-size="14.00" fill="#000000">Sign In</text>
</g>
<g id="clust8" class="cluster">
<title>cluster_Profile</title>
<polygon fill="none" stroke="#000000" points="221.7427,-52.8127 221.7427,-90.8127 273.7427,-90.8127 273.7427,-52.8127 221.7427,-52.8127"/>
<text text-anchor="middle" x="248.4117" y="-75.6127" font-family="Times,serif" font-size="14.00" fill="#000000">Profile</text>
</g>
<g id="clust9" class="cluster">
<title>cluster_SignOut</title>
<polygon fill="none" stroke="#000000" points=".3881,-86.5265 .3881,-124.5265 66.3881,-124.5265 66.3881,-86.5265 .3881,-86.5265"/>
<text text-anchor="middle" x="33.476" y="-109.3265" font-family="Times,serif" font-size="14.00" fill="#000000">Sign Out</text>
</g>
<g id="clust10" class="cluster">
<title>cluster_Forgot</title>
<polygon fill="none" stroke="#000000" points="111.6968,-.0797 111.6968,-38.0797 221.6968,-38.0797 221.6968,-.0797 111.6968,-.0797"/>
<text text-anchor="middle" x="166.8271" y="-22.8797" font-family="Times,serif" font-size="14.00" fill="#000000">Forgot Password</text>
</g>
<!-- Email -->
<g id="node8" class="node">
<title>Email</title>
<ellipse fill="none" stroke="#000000" cx="216.274" cy="-124.0378" rx="31.4549" ry="18"/>
<text text-anchor="middle" x="216.274" y="-119.8378" font-family="Times,serif" font-size="14.00" fill="#000000">Email</text>
</g>
<!-- __0:cluster_Menu -->
<!-- __1:cluster_Model -->
<!-- __0:cluster_Menu&#45;&gt;__1:cluster_Model -->
<g id="edge14" class="edge">
<title>__0:cluster_Menu&#45;&gt;__1:cluster_Model</title>
<path fill="none" stroke="#000000" d="M148.0908,-129.0107C151.0419,-135.4369 154.4027,-142.7555 157.6173,-149.7556"/>
<polygon fill="#000000" stroke="#000000" points="154.504,-151.3631 161.8579,-158.99 160.8653,-148.4418 154.504,-151.3631"/>
</g>
<!-- __2:cluster_Menu -->
<!-- __3:cluster_SignIn -->
<!-- __2:cluster_Menu&#45;&gt;__3:cluster_SignIn -->
<g id="edge15" class="edge">
<title>__2:cluster_Menu&#45;&gt;__3:cluster_SignIn</title>
<path fill="none" stroke="#ff0000" d="M115.3835,-90.8289C110.3437,-86.81 104.9482,-82.5074 99.6611,-78.2912"/>
<polygon fill="#ff0000" stroke="#ff0000" points="101.5092,-75.2884 91.5086,-71.7901 97.1449,-80.7613 101.5092,-75.2884"/>
</g>
<!-- __4:cluster_Menu -->
<!-- __5:cluster_SignUp -->
<!-- __4:cluster_Menu&#45;&gt;__5:cluster_SignUp -->
<g id="edge16" class="edge">
<title>__4:cluster_Menu&#45;&gt;__5:cluster_SignUp</title>
<path fill="none" stroke="#ff0000" d="M126.8796,-129.0291C124.5416,-132.6193 122.0526,-136.4413 119.5803,-140.2376"/>
<polygon fill="#ff0000" stroke="#ff0000" points="116.4453,-138.6381 113.921,-148.9278 122.3111,-142.4581 116.4453,-138.6381"/>
</g>
<!-- __6:cluster_Menu -->
<!-- __7:cluster_Profile -->
<!-- __6:cluster_Menu&#45;&gt;__7:cluster_Profile -->
<g id="edge17" class="edge">
<title>__6:cluster_Menu&#45;&gt;__7:cluster_Profile</title>
<path fill="none" stroke="#0000ff" d="M175.4259,-97.2308C187.2646,-93.0697 200.405,-88.4511 212.2019,-84.3047"/>
<polygon fill="#0000ff" stroke="#0000ff" points="213.4635,-87.5712 221.7371,-80.9532 211.1423,-80.9673 213.4635,-87.5712"/>
</g>
<!-- __8:cluster_Menu -->
<!-- __9:cluster_SignOut -->
<!-- __8:cluster_Menu&#45;&gt;__9:cluster_SignOut -->
<g id="edge18" class="edge">
<title>__8:cluster_Menu&#45;&gt;__9:cluster_SignOut</title>
<path fill="none" stroke="#0000ff" d="M103.1631,-108.4203C94.6331,-108.0665 85.4542,-107.6858 76.6463,-107.3205"/>
<polygon fill="#0000ff" stroke="#0000ff" points="76.6745,-103.8188 66.538,-106.9013 76.3843,-110.8128 76.6745,-103.8188"/>
</g>
<!-- __10:cluster_Model -->
<!-- __11:cluster_Results -->
<!-- __10:cluster_Model&#45;&gt;__11:cluster_Results -->
<g id="edge19" class="edge">
<title>__10:cluster_Model&#45;&gt;__11:cluster_Results</title>
<path fill="none" stroke="#000000" d="M182.598,-197.4749C183.7867,-199.3908 185.0102,-201.3627 186.2406,-203.3457"/>
<polygon fill="#000000" stroke="#000000" points="183.3452,-205.3179 191.5916,-211.9698 189.2933,-201.6272 183.3452,-205.3179"/>
</g>
<!-- __12:cluster_Results -->
<!-- __13:cluster_Home -->
<!-- __12:cluster_Results&#45;&gt;__13:cluster_Home -->
<g id="edge20" class="edge">
<title>__12:cluster_Results&#45;&gt;__13:cluster_Home</title>
<path fill="none" stroke="#000000" d="M231.6102,-224.6405C241.2364,-222.4162 252.1256,-219.9001 262.2271,-217.5659"/>
<polygon fill="#000000" stroke="#000000" points="263.0349,-220.9716 271.9902,-215.31 261.4589,-214.1513 263.0349,-220.9716"/>
</g>
<!-- __14:cluster_Home -->
<!-- __15:cluster_Edit -->
<!-- __14:cluster_Home&#45;&gt;__15:cluster_Edit -->
<g id="edge21" class="edge">
<title>__14:cluster_Home&#45;&gt;__15:cluster_Edit</title>
<path fill="none" stroke="#000000" d="M287.7019,-228.4892C283.4117,-237.0543 278.259,-247.3412 273.5378,-256.7667"/>
<polygon fill="#000000" stroke="#000000" points="270.3575,-255.3009 269.0083,-265.8094 276.6163,-258.4359 270.3575,-255.3009"/>
</g>
<!-- __16:cluster_Edit -->
<!-- __17:cluster_Results -->
<!-- __16:cluster_Edit&#45;&gt;__17:cluster_Results -->
<g id="edge22" class="edge">
<title>__16:cluster_Edit&#45;&gt;__17:cluster_Results</title>
<path fill="none" stroke="#000000" d="M240.216,-266.3418C237.1548,-263.4079 233.9389,-260.3258 230.7362,-257.2563"/>
<polygon fill="#000000" stroke="#000000" points="233.0073,-254.585 223.3659,-250.1926 228.1638,-259.6388 233.0073,-254.585"/>
</g>
<!-- __18:cluster_SignIn -->
<!-- __19:cluster_Forgot -->
<!-- __18:cluster_SignIn&#45;&gt;__19:cluster_Forgot -->
<g id="edge23" class="edge">
<title>__18:cluster_SignIn&#45;&gt;__19:cluster_Forgot</title>
<path fill="none" stroke="#ff0000" d="M95.6086,-43.0747C97.6578,-42.383 99.7674,-41.6709 101.9191,-40.9446"/>
<polygon fill="#ff0000" stroke="#ff0000" points="103.2092,-44.2032 111.5646,-37.6889 100.9705,-37.5709 103.2092,-44.2032"/>
</g>
<!-- __20:cluster_SignUp -->
<!-- __20:cluster_SignUp&#45;&gt;Email -->
<g id="edge24" class="edge">
<title>__20:cluster_SignUp&#45;&gt;Email</title>
<path fill="none" stroke="#ff0000" d="M132.4272,-156.3072C147.2635,-150.5973 165.0924,-143.7356 180.488,-137.8104"/>
<polygon fill="#ff0000" stroke="#ff0000" points="182.1222,-140.9318 190.1978,-134.0735 179.6079,-134.3989 182.1222,-140.9318"/>
</g>
<!-- __21:cluster_Forgot -->
<!-- __21:cluster_Forgot&#45;&gt;Email -->
<g id="edge25" class="edge">
<title>__21:cluster_Forgot&#45;&gt;Email</title>
<path fill="none" stroke="#ff0000" d="M175.79,-38.3306C183.6455,-54.9613 195.0735,-79.1551 203.786,-97.6"/>
<polygon fill="#ff0000" stroke="#ff0000" points="200.6254,-99.1037 208.0612,-106.6509 206.9549,-96.114 200.6254,-99.1037"/>
</g>
<!-- __22:cluster_SignOut -->
<!-- __23:cluster_SignIn -->
<!-- __22:cluster_SignOut&#45;&gt;__23:cluster_SignIn -->
<g id="edge26" class="edge">
<title>__22:cluster_SignOut&#45;&gt;__23:cluster_SignIn</title>
<path fill="none" stroke="#0000ff" d="M45.6771,-86.414C46.9149,-84.4889 48.189,-82.5074 49.4702,-80.5149"/>
<polygon fill="#0000ff" stroke="#0000ff" points="52.5778,-82.1532 55.0422,-71.849 46.6899,-78.3674 52.5778,-82.1532"/>
</g>
</g>
</svg>
